<?xml version="1.0" encoding="UTF-8"?>
<svg xmlns="http://www.w3.org/2000/svg" xmlns:xlink="http://www.w3.org/1999/xlink" width="227pt" height="156pt" viewBox="0 0 227 156" version="1.1">
<defs>
<clipPath id="clip1">
  <path d="M 0 0.09375 L 226.773438 0.09375 L 226.773438 156 L 0 156 Z M 0 0.09375 "/>
</clipPath>
</defs>
<g id="surface1">
<g clip-path="url(#clip1)" clip-rule="nonzero">
<path style=" stroke:none;fill-rule:nonzero;fill:rgb(100%,100%,100%);fill-opacity:1;" d="M 226.773438 156 L 0 156 L 0 0.09375 L 226.773438 0.09375 L 226.773438 156 "/>
</g>
<path style=" stroke:none;fill-rule:nonzero;fill:rgb(13.729858%,12.159729%,12.548828%);fill-opacity:1;" d="M 139.808594 87.109375 L 139.808594 82.492188 C 139.808594 81.886719 139.703125 81.449219 139.503906 81.1875 C 139.300781 80.921875 138.992188 80.789062 138.570312 80.789062 C 138.214844 80.789062 137.917969 80.878906 137.679688 81.058594 C 137.441406 81.238281 137.253906 81.414062 137.113281 81.582031 L 137.113281 87.109375 L 135.910156 87.109375 L 135.910156 76.546875 L 137.113281 76.414062 L 137.113281 80.671875 L 137.144531 80.671875 C 137.183594 80.613281 137.246094 80.53125 137.332031 80.433594 C 137.414062 80.332031 137.535156 80.234375 137.679688 80.132812 C 137.832031 80.035156 138.011719 79.945312 138.222656 79.871094 C 138.4375 79.796875 138.6875 79.761719 138.976562 79.761719 C 139.601562 79.761719 140.097656 79.964844 140.460938 80.375 C 140.828125 80.78125 141.011719 81.460938 141.011719 82.402344 L 141.011719 87.109375 Z M 134.140625 81.328125 C 134.109375 81.296875 134.0625 81.253906 133.996094 81.195312 C 133.929688 81.136719 133.851562 81.074219 133.753906 81.015625 C 133.65625 80.957031 133.535156 80.902344 133.394531 80.859375 C 133.257812 80.8125 133.097656 80.789062 132.917969 80.789062 C 132.660156 80.789062 132.421875 80.839844 132.195312 80.933594 C 131.972656 81.027344 131.78125 81.179688 131.617188 81.390625 C 131.453125 81.597656 131.324219 81.867188 131.226562 82.203125 C 131.136719 82.535156 131.089844 82.941406 131.089844 83.421875 C 131.089844 83.949219 131.132812 84.390625 131.214844 84.75 C 131.300781 85.109375 131.417969 85.394531 131.566406 85.609375 C 131.710938 85.824219 131.894531 85.976562 132.109375 86.074219 C 132.320312 86.167969 132.558594 86.214844 132.8125 86.214844 C 133.183594 86.214844 133.460938 86.148438 133.65625 86.019531 C 133.847656 85.890625 133.984375 85.785156 134.0625 85.707031 L 134.554688 86.542969 C 134.503906 86.605469 134.433594 86.675781 134.339844 86.761719 C 134.242188 86.84375 134.121094 86.929688 133.976562 87.007812 C 133.828125 87.085938 133.644531 87.15625 133.433594 87.210938 C 133.21875 87.265625 132.972656 87.289062 132.695312 87.289062 C 132.296875 87.289062 131.925781 87.226562 131.582031 87.09375 C 131.230469 86.964844 130.929688 86.753906 130.671875 86.453125 C 130.414062 86.15625 130.210938 85.765625 130.0625 85.289062 C 129.910156 84.808594 129.839844 84.21875 129.839844 83.511719 C 129.839844 82.824219 129.925781 82.238281 130.105469 81.761719 C 130.285156 81.285156 130.519531 80.898438 130.808594 80.605469 C 131.09375 80.308594 131.414062 80.097656 131.765625 79.960938 C 132.117188 79.828125 132.472656 79.761719 132.828125 79.761719 C 133.097656 79.761719 133.332031 79.785156 133.535156 79.835938 C 133.738281 79.886719 133.910156 79.945312 134.058594 80.023438 C 134.199219 80.097656 134.320312 80.175781 134.414062 80.261719 C 134.507812 80.347656 134.585938 80.417969 134.644531 80.476562 Z M 129.152344 81 C 129.125 80.980469 129.058594 80.957031 128.960938 80.925781 C 128.863281 80.894531 128.726562 80.878906 128.558594 80.878906 C 128.179688 80.878906 127.886719 80.984375 127.671875 81.1875 C 127.460938 81.390625 127.308594 81.613281 127.21875 81.851562 L 127.21875 87.109375 L 126.015625 87.109375 L 126.015625 79.9375 L 127.117188 79.9375 L 127.117188 80.910156 L 127.144531 80.910156 C 127.195312 80.769531 127.261719 80.636719 127.339844 80.5 C 127.417969 80.363281 127.515625 80.246094 127.636719 80.140625 C 127.757812 80.035156 127.898438 79.953125 128.058594 79.894531 C 128.222656 79.835938 128.421875 79.804688 128.648438 79.804688 C 128.816406 79.804688 128.953125 79.820312 129.058594 79.851562 C 129.164062 79.878906 129.242188 79.902344 129.300781 79.921875 Z M 121.820312 86.257812 C 121.988281 86.257812 122.136719 86.234375 122.269531 86.183594 C 122.394531 86.136719 122.503906 86.074219 122.601562 86.003906 C 122.695312 85.933594 122.773438 85.859375 122.835938 85.773438 C 122.902344 85.6875 122.960938 85.617188 123.007812 85.558594 L 123.007812 83.972656 L 122.621094 83.988281 C 122.046875 84.007812 121.609375 84.109375 121.316406 84.285156 C 121.015625 84.464844 120.867188 84.753906 120.867188 85.152344 C 120.867188 85.523438 120.949219 85.796875 121.117188 85.984375 C 121.289062 86.167969 121.523438 86.257812 121.820312 86.257812 Z M 119.660156 85.289062 C 119.660156 84.871094 119.742188 84.523438 119.898438 84.242188 C 120.058594 83.964844 120.273438 83.738281 120.539062 83.5625 C 120.804688 83.386719 121.121094 83.265625 121.484375 83.1875 C 121.847656 83.113281 122.230469 83.078125 122.636719 83.078125 L 123.007812 83.078125 L 123.007812 82.390625 C 123.007812 81.78125 122.902344 81.363281 122.6875 81.136719 C 122.476562 80.90625 122.175781 80.789062 121.792969 80.789062 C 121.429688 80.789062 121.132812 80.867188 120.894531 81.023438 C 120.660156 81.175781 120.46875 81.3125 120.328125 81.433594 L 119.824219 80.625 C 119.90625 80.546875 120.003906 80.457031 120.128906 80.359375 C 120.253906 80.257812 120.40625 80.164062 120.582031 80.074219 C 120.761719 79.984375 120.964844 79.910156 121.195312 79.851562 C 121.421875 79.789062 121.679688 79.761719 121.96875 79.761719 C 122.703125 79.761719 123.257812 79.964844 123.636719 80.375 C 124.011719 80.78125 124.199219 81.4375 124.199219 82.34375 L 124.199219 85.617188 C 124.199219 85.925781 124.210938 86.226562 124.230469 86.519531 C 124.25 86.8125 124.269531 87.011719 124.289062 87.109375 L 123.144531 87.109375 L 123.097656 86.320312 L 123.070312 86.320312 C 123.027344 86.410156 122.96875 86.511719 122.890625 86.625 C 122.808594 86.738281 122.710938 86.84375 122.59375 86.941406 C 122.472656 87.035156 122.332031 87.113281 122.160156 87.1875 C 121.992188 87.253906 121.796875 87.289062 121.566406 87.289062 C 121.296875 87.289062 121.046875 87.242188 120.8125 87.140625 C 120.582031 87.039062 120.378906 86.902344 120.207031 86.722656 C 120.03125 86.542969 119.898438 86.332031 119.800781 86.085938 C 119.710938 85.84375 119.660156 85.578125 119.660156 85.289062 Z M 116.210938 80.746094 C 115.78125 80.746094 115.441406 80.925781 115.179688 81.285156 C 114.925781 81.640625 114.777344 82.160156 114.738281 82.835938 L 117.339844 82.835938 C 117.351562 82.785156 117.359375 82.714844 117.363281 82.621094 C 117.367188 82.527344 117.371094 82.421875 117.371094 82.316406 C 117.371094 81.816406 117.269531 81.429688 117.070312 81.15625 C 116.875 80.882812 116.585938 80.746094 116.210938 80.746094 Z M 118.472656 82.359375 C 118.472656 82.667969 118.460938 82.933594 118.441406 83.160156 C 118.421875 83.382812 118.402344 83.582031 118.382812 83.75 L 114.738281 83.75 C 114.777344 84.597656 114.957031 85.21875 115.277344 85.617188 C 115.601562 86.015625 116.066406 86.214844 116.671875 86.214844 C 116.878906 86.214844 117.066406 86.191406 117.238281 86.140625 C 117.402344 86.089844 117.550781 86.03125 117.675781 85.960938 C 117.800781 85.890625 117.902344 85.824219 117.988281 85.75 C 118.070312 85.679688 118.132812 85.625 118.171875 85.585938 L 118.621094 86.4375 C 118.570312 86.488281 118.496094 86.558594 118.394531 86.65625 C 118.300781 86.75 118.164062 86.84375 117.996094 86.941406 C 117.828125 87.035156 117.617188 87.113281 117.371094 87.1875 C 117.121094 87.253906 116.832031 87.289062 116.492188 87.289062 C 116.046875 87.289062 115.640625 87.214844 115.277344 87.066406 C 114.917969 86.917969 114.609375 86.683594 114.355469 86.371094 C 114.105469 86.058594 113.90625 85.660156 113.769531 85.175781 C 113.632812 84.695312 113.558594 84.113281 113.558594 83.4375 C 113.558594 82.796875 113.632812 82.246094 113.777344 81.785156 C 113.917969 81.320312 114.117188 80.941406 114.363281 80.640625 C 114.613281 80.34375 114.898438 80.121094 115.226562 79.976562 C 115.554688 79.832031 115.90625 79.761719 116.28125 79.761719 C 116.96875 79.761719 117.503906 79.976562 117.890625 80.410156 C 118.277344 80.84375 118.472656 81.492188 118.472656 82.359375 Z M 111.761719 81.390625 C 111.679688 81.296875 111.539062 81.175781 111.328125 81.023438 C 111.121094 80.867188 110.847656 80.789062 110.507812 80.789062 C 110.191406 80.789062 109.949219 80.867188 109.78125 81.015625 C 109.613281 81.164062 109.527344 81.34375 109.527344 81.550781 C 109.527344 81.820312 109.605469 82.042969 109.757812 82.21875 C 109.910156 82.394531 110.148438 82.578125 110.464844 82.777344 L 110.914062 83.046875 C 111.398438 83.335938 111.78125 83.648438 112.058594 83.980469 C 112.335938 84.316406 112.472656 84.746094 112.472656 85.273438 C 112.472656 85.839844 112.277344 86.320312 111.886719 86.707031 C 111.496094 87.09375 110.933594 87.289062 110.199219 87.289062 C 109.910156 87.289062 109.65625 87.261719 109.441406 87.203125 C 109.21875 87.140625 109.03125 87.074219 108.867188 86.992188 C 108.703125 86.910156 108.566406 86.824219 108.457031 86.730469 C 108.347656 86.636719 108.257812 86.546875 108.1875 86.46875 L 108.769531 85.511719 C 108.828125 85.574219 108.898438 85.640625 108.984375 85.722656 C 109.070312 85.800781 109.171875 85.878906 109.292969 85.953125 C 109.410156 86.027344 109.542969 86.089844 109.691406 86.140625 C 109.839844 86.191406 110.011719 86.214844 110.210938 86.214844 C 110.570312 86.214844 110.839844 86.136719 111.03125 85.976562 C 111.21875 85.816406 111.3125 85.621094 111.3125 85.390625 C 111.3125 85.222656 111.292969 85.078125 111.246094 84.953125 C 111.203125 84.828125 111.132812 84.714844 111.046875 84.617188 C 110.957031 84.515625 110.847656 84.421875 110.71875 84.332031 C 110.589844 84.242188 110.441406 84.144531 110.273438 84.035156 L 109.824219 83.75 C 109.378906 83.460938 109.03125 83.15625 108.777344 82.835938 C 108.523438 82.519531 108.398438 82.109375 108.398438 81.613281 C 108.398438 81.34375 108.449219 81.097656 108.554688 80.875 C 108.660156 80.648438 108.804688 80.453125 108.992188 80.289062 C 109.179688 80.125 109.402344 79.996094 109.65625 79.902344 C 109.90625 79.808594 110.179688 79.761719 110.464844 79.761719 C 110.746094 79.761719 110.980469 79.785156 111.179688 79.84375 C 111.378906 79.898438 111.550781 79.964844 111.691406 80.050781 C 111.835938 80.136719 111.953125 80.222656 112.050781 80.304688 C 112.144531 80.390625 112.222656 80.460938 112.28125 80.523438 Z M 104.8125 80.746094 C 104.386719 80.746094 104.042969 80.925781 103.785156 81.285156 C 103.527344 81.640625 103.378906 82.160156 103.339844 82.835938 L 105.941406 82.835938 C 105.953125 82.785156 105.960938 82.714844 105.964844 82.621094 C 105.96875 82.527344 105.972656 82.421875 105.972656 82.316406 C 105.972656 81.816406 105.875 81.429688 105.675781 81.15625 C 105.476562 80.882812 105.191406 80.746094 104.8125 80.746094 Z M 107.074219 82.359375 C 107.074219 82.667969 107.0625 82.933594 107.042969 83.160156 C 107.023438 83.382812 107.003906 83.582031 106.984375 83.75 L 103.339844 83.75 C 103.378906 84.597656 103.558594 85.21875 103.878906 85.617188 C 104.203125 86.015625 104.667969 86.214844 105.273438 86.214844 C 105.480469 86.214844 105.667969 86.191406 105.839844 86.140625 C 106.007812 86.089844 106.152344 86.03125 106.277344 85.960938 C 106.402344 85.890625 106.503906 85.824219 106.589844 85.75 C 106.675781 85.679688 106.734375 85.625 106.773438 85.585938 L 107.222656 86.4375 C 107.171875 86.488281 107.097656 86.558594 107 86.65625 C 106.902344 86.75 106.765625 86.84375 106.597656 86.941406 C 106.429688 87.035156 106.21875 87.113281 105.972656 87.1875 C 105.722656 87.253906 105.429688 87.289062 105.09375 87.289062 C 104.648438 87.289062 104.246094 87.214844 103.878906 87.066406 C 103.519531 86.917969 103.210938 86.683594 102.960938 86.371094 C 102.707031 86.058594 102.507812 85.660156 102.371094 85.175781 C 102.234375 84.695312 102.164062 84.113281 102.164062 83.4375 C 102.164062 82.796875 102.238281 82.246094 102.378906 81.785156 C 102.519531 81.320312 102.71875 80.941406 102.964844 80.640625 C 103.214844 80.34375 103.5 80.121094 103.828125 79.976562 C 104.15625 79.832031 104.507812 79.761719 104.886719 79.761719 C 105.570312 79.761719 106.105469 79.976562 106.492188 80.410156 C 106.878906 80.84375 107.074219 81.492188 107.074219 82.359375 Z M 99.378906 79.761719 C 99.378906 79.101562 99.199219 78.617188 98.835938 78.304688 C 98.476562 77.988281 97.90625 77.832031 97.132812 77.832031 L 96.507812 77.832031 L 96.507812 81.878906 L 97.074219 81.878906 C 97.855469 81.878906 98.4375 81.695312 98.816406 81.328125 C 99.191406 80.960938 99.378906 80.4375 99.378906 79.761719 Z M 99.902344 87.109375 L 97.773438 82.882812 C 97.664062 82.894531 97.550781 82.898438 97.429688 82.902344 C 97.3125 82.910156 97.195312 82.910156 97.074219 82.910156 L 96.507812 82.910156 L 96.507812 87.109375 L 95.214844 87.109375 L 95.214844 76.800781 L 97.132812 76.800781 C 98.375 76.800781 99.289062 77.042969 99.878906 77.527344 C 100.46875 78.011719 100.765625 78.730469 100.765625 79.683594 C 100.765625 80.375 100.621094 80.960938 100.332031 81.449219 C 100.046875 81.933594 99.601562 82.308594 99.007812 82.570312 L 101.417969 87.109375 Z M 87.417969 86.214844 C 87.605469 86.214844 87.773438 86.191406 87.921875 86.140625 C 88.070312 86.089844 88.199219 86.027344 88.308594 85.953125 C 88.417969 85.878906 88.511719 85.800781 88.585938 85.722656 C 88.660156 85.640625 88.71875 85.574219 88.757812 85.511719 L 88.757812 81.089844 C 88.648438 81.019531 88.519531 80.960938 88.378906 80.910156 C 88.234375 80.863281 88.050781 80.835938 87.832031 80.835938 C 87.554688 80.835938 87.296875 80.882812 87.054688 80.976562 C 86.808594 81.074219 86.597656 81.230469 86.421875 81.449219 C 86.242188 81.667969 86.101562 81.953125 85.996094 82.300781 C 85.894531 82.648438 85.839844 83.078125 85.839844 83.585938 C 85.839844 84.085938 85.882812 84.5 85.96875 84.832031 C 86.050781 85.167969 86.167969 85.433594 86.316406 85.636719 C 86.464844 85.84375 86.632812 85.988281 86.824219 86.082031 C 87.011719 86.167969 87.210938 86.214844 87.417969 86.214844 Z M 84.589844 83.628906 C 84.589844 82.902344 84.683594 82.292969 84.871094 81.804688 C 85.0625 81.316406 85.304688 80.925781 85.601562 80.625 C 85.898438 80.328125 86.238281 80.117188 86.613281 79.992188 C 86.992188 79.867188 87.367188 79.804688 87.746094 79.804688 C 87.972656 79.804688 88.171875 79.824219 88.339844 79.859375 C 88.507812 79.890625 88.648438 79.933594 88.757812 79.984375 L 88.757812 76.546875 L 89.960938 76.414062 L 89.960938 87.109375 L 88.859375 87.109375 L 88.859375 86.347656 L 88.832031 86.347656 C 88.800781 86.410156 88.746094 86.492188 88.667969 86.597656 C 88.585938 86.703125 88.476562 86.804688 88.339844 86.910156 C 88.199219 87.015625 88.027344 87.101562 87.820312 87.179688 C 87.609375 87.253906 87.367188 87.289062 87.089844 87.289062 C 86.753906 87.289062 86.433594 87.222656 86.132812 87.089844 C 85.828125 86.953125 85.5625 86.738281 85.335938 86.445312 C 85.105469 86.152344 84.925781 85.773438 84.789062 85.308594 C 84.65625 84.847656 84.589844 84.285156 84.589844 83.628906 Z M 81.910156 87.109375 L 81.910156 82.492188 C 81.910156 81.886719 81.808594 81.449219 81.605469 81.1875 C 81.402344 80.921875 81.09375 80.789062 80.675781 80.789062 C 80.320312 80.789062 80.023438 80.878906 79.785156 81.058594 C 79.546875 81.238281 79.355469 81.414062 79.21875 81.582031 L 79.21875 87.109375 L 78.015625 87.109375 L 78.015625 79.9375 L 79.113281 79.9375 L 79.113281 80.746094 L 79.144531 80.746094 C 79.171875 80.683594 79.238281 80.597656 79.335938 80.484375 C 79.4375 80.371094 79.566406 80.261719 79.722656 80.15625 C 79.882812 80.050781 80.074219 79.957031 80.289062 79.878906 C 80.507812 79.800781 80.757812 79.761719 81.035156 79.761719 C 81.351562 79.761719 81.640625 79.808594 81.898438 79.902344 C 82.15625 79.996094 82.375 80.148438 82.550781 80.359375 C 82.730469 80.566406 82.867188 80.839844 82.96875 81.171875 C 83.066406 81.503906 83.117188 81.914062 83.117188 82.402344 L 83.117188 87.109375 Z M 73.816406 86.257812 C 73.988281 86.257812 74.136719 86.234375 74.265625 86.183594 C 74.394531 86.136719 74.503906 86.074219 74.597656 86.003906 C 74.691406 85.933594 74.773438 85.859375 74.835938 85.773438 C 74.902344 85.6875 74.957031 85.617188 75.007812 85.558594 L 75.007812 83.972656 L 74.621094 83.988281 C 74.046875 84.007812 73.609375 84.109375 73.3125 84.285156 C 73.015625 84.464844 72.867188 84.753906 72.867188 85.152344 C 72.867188 85.523438 72.949219 85.796875 73.117188 85.984375 C 73.285156 86.167969 73.519531 86.257812 73.816406 86.257812 Z M 71.660156 85.289062 C 71.660156 84.871094 71.738281 84.523438 71.898438 84.242188 C 72.058594 83.964844 72.269531 83.738281 72.539062 83.5625 C 72.804688 83.386719 73.121094 83.265625 73.484375 83.1875 C 73.84375 83.113281 74.230469 83.078125 74.636719 83.078125 L 75.007812 83.078125 L 75.007812 82.390625 C 75.007812 81.78125 74.902344 81.363281 74.6875 81.136719 C 74.476562 80.90625 74.175781 80.789062 73.789062 80.789062 C 73.429688 80.789062 73.132812 80.867188 72.894531 81.023438 C 72.65625 81.175781 72.46875 81.3125 72.328125 81.433594 L 71.824219 80.625 C 71.902344 80.546875 72.003906 80.457031 72.128906 80.359375 C 72.253906 80.257812 72.402344 80.164062 72.582031 80.074219 C 72.761719 79.984375 72.964844 79.910156 73.191406 79.851562 C 73.421875 79.789062 73.679688 79.761719 73.964844 79.761719 C 74.699219 79.761719 75.257812 79.964844 75.632812 80.375 C 76.011719 80.78125 76.199219 81.4375 76.199219 82.34375 L 76.199219 85.617188 C 76.199219 85.925781 76.207031 86.226562 76.226562 86.519531 C 76.246094 86.8125 76.269531 87.011719 76.289062 87.109375 L 75.140625 87.109375 L 75.097656 86.320312 L 75.066406 86.320312 C 75.027344 86.410156 74.96875 86.511719 74.890625 86.625 C 74.808594 86.738281 74.710938 86.84375 74.589844 86.941406 C 74.472656 87.035156 74.328125 87.113281 74.160156 87.1875 C 73.992188 87.253906 73.792969 87.289062 73.566406 87.289062 C 73.296875 87.289062 73.046875 87.242188 72.8125 87.140625 C 72.582031 87.039062 72.378906 86.902344 72.203125 86.722656 C 72.03125 86.542969 71.894531 86.332031 71.800781 86.085938 C 71.707031 85.84375 71.660156 85.578125 71.660156 85.289062 Z M 136.460938 72.042969 L 136.460938 67.429688 C 136.460938 66.820312 136.359375 66.386719 136.15625 66.121094 C 135.953125 65.855469 135.644531 65.726562 135.226562 65.726562 C 134.867188 65.726562 134.570312 65.816406 134.332031 65.992188 C 134.09375 66.171875 133.90625 66.347656 133.765625 66.515625 L 133.765625 72.042969 L 132.5625 72.042969 L 132.5625 64.875 L 133.664062 64.875 L 133.664062 65.679688 L 133.695312 65.679688 C 133.722656 65.621094 133.785156 65.53125 133.886719 65.417969 C 133.984375 65.304688 134.113281 65.195312 134.273438 65.089844 C 134.429688 64.984375 134.621094 64.894531 134.839844 64.8125 C 135.058594 64.734375 135.304688 64.695312 135.582031 64.695312 C 135.902344 64.695312 136.1875 64.742188 136.445312 64.835938 C 136.703125 64.929688 136.921875 65.082031 137.101562 65.292969 C 137.28125 65.5 137.417969 65.773438 137.519531 66.105469 C 137.617188 66.441406 137.667969 66.851562 137.667969 67.339844 L 137.667969 72.042969 Z M 129.792969 68.460938 C 129.792969 67.503906 129.65625 66.808594 129.378906 66.375 C 129.101562 65.941406 128.714844 65.726562 128.21875 65.726562 C 127.722656 65.726562 127.335938 65.941406 127.0625 66.375 C 126.792969 66.808594 126.652344 67.503906 126.652344 68.460938 C 126.652344 69.414062 126.792969 70.101562 127.070312 70.519531 C 127.347656 70.9375 127.738281 71.148438 128.230469 71.148438 C 128.726562 71.148438 129.113281 70.9375 129.386719 70.519531 C 129.65625 70.101562 129.792969 69.414062 129.792969 68.460938 Z M 125.40625 68.460938 C 125.40625 67.800781 125.480469 67.234375 125.636719 66.757812 C 125.789062 66.277344 125.996094 65.886719 126.257812 65.585938 C 126.523438 65.277344 126.824219 65.054688 127.167969 64.910156 C 127.511719 64.765625 127.875 64.695312 128.261719 64.695312 C 128.65625 64.695312 129.027344 64.765625 129.363281 64.910156 C 129.699219 65.054688 129.992188 65.277344 130.242188 65.585938 C 130.488281 65.886719 130.683594 66.277344 130.828125 66.757812 C 130.972656 67.234375 131.042969 67.800781 131.042969 68.460938 C 131.042969 69.125 130.96875 69.699219 130.820312 70.175781 C 130.671875 70.65625 130.46875 71.046875 130.203125 71.351562 C 129.941406 71.652344 129.636719 71.875 129.285156 72.015625 C 128.941406 72.152344 128.574219 72.222656 128.1875 72.222656 C 127.792969 72.222656 127.421875 72.152344 127.085938 72.015625 C 126.746094 71.875 126.457031 71.652344 126.207031 71.351562 C 125.960938 71.046875 125.761719 70.65625 125.621094 70.183594 C 125.476562 69.710938 125.40625 69.136719 125.40625 68.460938 Z M 123.292969 63.140625 C 123.042969 63.140625 122.84375 63.058594 122.695312 62.902344 C 122.546875 62.742188 122.472656 62.53125 122.472656 62.273438 C 122.472656 62.023438 122.546875 61.820312 122.695312 61.660156 C 122.84375 61.5 123.042969 61.421875 123.292969 61.421875 C 123.527344 61.421875 123.726562 61.5 123.871094 61.660156 C 124.019531 61.820312 124.09375 62.023438 124.09375 62.273438 C 124.09375 62.53125 124.019531 62.742188 123.871094 62.902344 C 123.726562 63.058594 123.527344 63.140625 123.292969 63.140625 Z M 123.886719 72.042969 L 122.683594 72.042969 L 122.683594 64.875 L 123.886719 64.875 Z M 121.316406 65.859375 L 119.75 65.859375 L 119.75 69.832031 C 119.75 70.34375 119.8125 70.6875 119.945312 70.871094 C 120.074219 71.054688 120.289062 71.148438 120.597656 71.148438 C 120.777344 71.148438 120.929688 71.125 121.058594 71.074219 C 121.1875 71.023438 121.28125 70.976562 121.34375 70.9375 L 121.507812 71.910156 C 121.457031 71.949219 121.339844 72.011719 121.148438 72.097656 C 120.960938 72.183594 120.710938 72.222656 120.390625 72.222656 C 119.777344 72.222656 119.316406 72.050781 119.007812 71.710938 C 118.699219 71.363281 118.546875 70.792969 118.546875 69.996094 L 118.546875 65.859375 L 117.683594 65.859375 L 117.683594 65.050781 L 118.546875 64.875 L 118.679688 62.871094 L 119.75 62.871094 L 119.75 64.875 L 121.460938 64.875 Z M 114.066406 71.191406 C 114.234375 71.191406 114.382812 71.167969 114.511719 71.117188 C 114.640625 71.070312 114.753906 71.007812 114.847656 70.9375 C 114.941406 70.871094 115.019531 70.792969 115.085938 70.707031 C 115.148438 70.625 115.203125 70.550781 115.257812 70.492188 L 115.257812 68.90625 L 114.867188 68.921875 C 114.292969 68.941406 113.855469 69.042969 113.558594 69.222656 C 113.261719 69.398438 113.113281 69.6875 113.113281 70.085938 C 113.113281 70.457031 113.199219 70.734375 113.367188 70.917969 C 113.535156 71.101562 113.769531 71.191406 114.066406 71.191406 Z M 111.910156 70.222656 C 111.910156 69.804688 111.988281 69.457031 112.144531 69.175781 C 112.304688 68.898438 112.519531 68.671875 112.785156 68.496094 C 113.054688 68.324219 113.371094 68.199219 113.730469 68.121094 C 114.09375 68.046875 114.480469 68.011719 114.882812 68.011719 L 115.257812 68.011719 L 115.257812 67.324219 C 115.257812 66.714844 115.148438 66.296875 114.9375 66.070312 C 114.722656 65.839844 114.421875 65.726562 114.035156 65.726562 C 113.679688 65.726562 113.382812 65.800781 113.144531 65.957031 C 112.90625 66.109375 112.71875 66.246094 112.578125 66.367188 L 112.074219 65.558594 C 112.152344 65.480469 112.253906 65.390625 112.378906 65.292969 C 112.5 65.191406 112.652344 65.097656 112.832031 65.007812 C 113.011719 64.917969 113.214844 64.84375 113.441406 64.785156 C 113.671875 64.722656 113.925781 64.695312 114.214844 64.695312 C 114.949219 64.695312 115.503906 64.898438 115.882812 65.308594 C 116.257812 65.714844 116.449219 66.371094 116.449219 67.277344 L 116.449219 70.550781 C 116.449219 70.859375 116.457031 71.160156 116.476562 71.457031 C 116.5 71.75 116.519531 71.945312 116.539062 72.042969 L 115.390625 72.042969 L 115.347656 71.253906 L 115.316406 71.253906 C 115.277344 71.34375 115.21875 71.445312 115.136719 71.558594 C 115.058594 71.671875 114.960938 71.777344 114.839844 71.871094 C 114.71875 71.96875 114.578125 72.050781 114.410156 72.121094 C 114.238281 72.191406 114.039062 72.222656 113.8125 72.222656 C 113.542969 72.222656 113.296875 72.175781 113.0625 72.074219 C 112.828125 71.976562 112.625 71.835938 112.449219 71.65625 C 112.277344 71.476562 112.144531 71.265625 112.050781 71.023438 C 111.953125 70.777344 111.910156 70.511719 111.910156 70.222656 Z M 110.554688 66.261719 C 110.523438 66.234375 110.476562 66.1875 110.414062 66.128906 C 110.347656 66.070312 110.269531 66.007812 110.167969 65.949219 C 110.066406 65.890625 109.949219 65.835938 109.808594 65.792969 C 109.671875 65.746094 109.511719 65.726562 109.335938 65.726562 C 109.078125 65.726562 108.835938 65.773438 108.613281 65.867188 C 108.390625 65.960938 108.195312 66.113281 108.035156 66.324219 C 107.871094 66.53125 107.742188 66.804688 107.644531 67.136719 C 107.550781 67.46875 107.503906 67.875 107.503906 68.355469 C 107.503906 68.882812 107.546875 69.324219 107.628906 69.683594 C 107.714844 70.042969 107.832031 70.328125 107.980469 70.542969 C 108.128906 70.757812 108.308594 70.910156 108.523438 71.003906 C 108.734375 71.101562 108.972656 71.148438 109.230469 71.148438 C 109.59375 71.148438 109.878906 71.085938 110.070312 70.953125 C 110.265625 70.824219 110.402344 70.71875 110.480469 70.640625 L 110.96875 71.476562 C 110.921875 71.535156 110.847656 71.609375 110.757812 71.691406 C 110.660156 71.777344 110.539062 71.859375 110.390625 71.941406 C 110.242188 72.019531 110.058594 72.085938 109.847656 72.144531 C 109.636719 72.199219 109.390625 72.222656 109.109375 72.222656 C 108.714844 72.222656 108.34375 72.160156 107.996094 72.03125 C 107.648438 71.898438 107.34375 71.6875 107.085938 71.386719 C 106.828125 71.089844 106.625 70.699219 106.476562 70.222656 C 106.332031 69.746094 106.253906 69.152344 106.253906 68.445312 C 106.253906 67.757812 106.34375 67.175781 106.523438 66.695312 C 106.699219 66.21875 106.933594 65.832031 107.222656 65.539062 C 107.511719 65.242188 107.828125 65.03125 108.179688 64.894531 C 108.535156 64.761719 108.886719 64.695312 109.242188 64.695312 C 109.511719 64.695312 109.746094 64.71875 109.953125 64.769531 C 110.15625 64.820312 110.328125 64.878906 110.472656 64.957031 C 110.617188 65.03125 110.738281 65.109375 110.828125 65.195312 C 110.925781 65.277344 111 65.351562 111.0625 65.410156 Z M 104.738281 72.042969 L 103.636719 72.042969 L 103.636719 71.238281 L 103.609375 71.238281 C 103.578125 71.296875 103.511719 71.386719 103.414062 71.5 C 103.316406 71.613281 103.1875 71.722656 103.035156 71.828125 C 102.878906 71.933594 102.691406 72.023438 102.476562 72.105469 C 102.257812 72.183594 102.015625 72.222656 101.746094 72.222656 C 101.429688 72.222656 101.144531 72.175781 100.890625 72.082031 C 100.640625 71.988281 100.421875 71.835938 100.246094 71.625 C 100.066406 71.417969 99.929688 71.144531 99.835938 70.8125 C 99.738281 70.480469 99.695312 70.066406 99.695312 69.578125 L 99.695312 64.875 L 100.898438 64.875 L 100.898438 69.492188 C 100.898438 70.085938 100.996094 70.511719 101.1875 70.765625 C 101.382812 71.023438 101.679688 71.148438 102.089844 71.148438 C 102.433594 71.148438 102.726562 71.0625 102.964844 70.886719 C 103.203125 70.710938 103.394531 70.539062 103.53125 70.371094 L 103.53125 64.875 L 104.738281 64.875 Z M 95.347656 71.148438 C 95.535156 71.148438 95.707031 71.125 95.855469 71.074219 C 96.003906 71.023438 96.132812 70.960938 96.242188 70.886719 C 96.347656 70.8125 96.441406 70.734375 96.515625 70.65625 C 96.589844 70.574219 96.648438 70.507812 96.6875 70.445312 L 96.6875 66.023438 C 96.578125 65.953125 96.453125 65.894531 96.308594 65.84375 C 96.164062 65.792969 95.984375 65.769531 95.765625 65.769531 C 95.488281 65.769531 95.226562 65.816406 94.984375 65.910156 C 94.742188 66.007812 94.53125 66.164062 94.351562 66.382812 C 94.171875 66.601562 94.03125 66.886719 93.925781 67.234375 C 93.824219 67.582031 93.769531 68.011719 93.769531 68.519531 C 93.769531 69.015625 93.8125 69.433594 93.898438 69.765625 C 93.980469 70.101562 94.097656 70.367188 94.246094 70.574219 C 94.394531 70.777344 94.566406 70.925781 94.753906 71.011719 C 94.941406 71.105469 95.140625 71.148438 95.347656 71.148438 Z M 92.523438 68.5625 C 92.523438 67.835938 92.617188 67.230469 92.804688 66.742188 C 92.992188 66.253906 93.234375 65.859375 93.53125 65.558594 C 93.832031 65.261719 94.167969 65.050781 94.542969 64.925781 C 94.921875 64.800781 95.296875 64.738281 95.675781 64.738281 C 95.90625 64.738281 96.101562 64.757812 96.269531 64.792969 C 96.4375 64.828125 96.578125 64.867188 96.6875 64.917969 L 96.6875 61.480469 L 97.894531 61.347656 L 97.894531 72.042969 L 96.792969 72.042969 L 96.792969 71.28125 L 96.761719 71.28125 C 96.730469 71.34375 96.675781 71.425781 96.597656 71.527344 C 96.519531 71.632812 96.410156 71.738281 96.269531 71.84375 C 96.132812 71.949219 95.957031 72.039062 95.75 72.113281 C 95.542969 72.1875 95.296875 72.222656 95.019531 72.222656 C 94.683594 72.222656 94.363281 72.15625 94.0625 72.023438 C 93.757812 71.886719 93.496094 71.671875 93.265625 71.378906 C 93.035156 71.085938 92.855469 70.707031 92.722656 70.246094 C 92.589844 69.78125 92.523438 69.222656 92.523438 68.5625 Z M 91.109375 62.765625 L 87.445312 62.765625 L 87.445312 66.324219 L 90.808594 66.324219 L 90.808594 67.351562 L 87.445312 67.351562 L 87.445312 70.96875 L 91.480469 70.96875 L 91.40625 72.042969 L 86.152344 72.042969 L 86.152344 61.734375 L 91.199219 61.734375 Z M 81.824219 65.859375 L 80.363281 65.859375 L 80.363281 72.042969 L 79.160156 72.042969 L 79.160156 65.859375 L 78.296875 65.859375 L 78.296875 65.050781 L 79.160156 64.890625 L 79.160156 63.453125 C 79.160156 63.066406 79.214844 62.730469 79.324219 62.453125 C 79.433594 62.175781 79.574219 61.945312 79.753906 61.765625 C 79.933594 61.585938 80.140625 61.457031 80.378906 61.375 C 80.617188 61.296875 80.871094 61.257812 81.140625 61.257812 C 81.398438 61.257812 81.613281 61.292969 81.792969 61.363281 C 81.972656 61.429688 82.089844 61.488281 82.152344 61.527344 L 81.898438 62.527344 C 81.839844 62.488281 81.753906 62.445312 81.644531 62.398438 C 81.535156 62.355469 81.402344 62.332031 81.242188 62.332031 C 80.953125 62.332031 80.738281 62.421875 80.589844 62.601562 C 80.441406 62.78125 80.363281 63.109375 80.363281 63.589844 L 80.363281 64.875 L 81.972656 64.875 Z M 76.140625 68.460938 C 76.140625 67.503906 76 66.808594 75.722656 66.375 C 75.445312 65.941406 75.058594 65.726562 74.5625 65.726562 C 74.066406 65.726562 73.679688 65.941406 73.40625 66.375 C 73.136719 66.808594 73 67.503906 73 68.460938 C 73 69.414062 73.140625 70.101562 73.414062 70.519531 C 73.695312 70.9375 74.082031 71.148438 74.578125 71.148438 C 75.074219 71.148438 75.457031 70.9375 75.730469 70.519531 C 76.003906 70.101562 76.140625 69.414062 76.140625 68.460938 Z M 71.75 68.460938 C 71.75 67.800781 71.828125 67.234375 71.980469 66.757812 C 72.132812 66.277344 72.34375 65.886719 72.605469 65.585938 C 72.867188 65.277344 73.167969 65.054688 73.511719 64.910156 C 73.855469 64.765625 74.21875 64.695312 74.605469 64.695312 C 75.003906 64.695312 75.371094 64.765625 75.707031 64.910156 C 76.042969 65.054688 76.335938 65.277344 76.585938 65.585938 C 76.832031 65.886719 77.03125 66.277344 77.171875 66.757812 C 77.316406 67.234375 77.390625 67.800781 77.390625 68.460938 C 77.390625 69.125 77.3125 69.699219 77.164062 70.175781 C 77.015625 70.65625 76.808594 71.046875 76.546875 71.351562 C 76.285156 71.652344 75.980469 71.875 75.632812 72.015625 C 75.285156 72.152344 74.917969 72.222656 74.53125 72.222656 C 74.136719 72.222656 73.769531 72.152344 73.429688 72.015625 C 73.09375 71.875 72.800781 71.652344 72.554688 71.351562 C 72.304688 71.046875 72.109375 70.65625 71.964844 70.183594 C 71.820312 69.710938 71.75 69.136719 71.75 68.460938 Z M 157.246094 49.808594 L 155.015625 57.398438 C 154.757812 58.273438 154.441406 58.933594 154.070312 59.382812 C 153.699219 59.832031 153.160156 60.054688 152.453125 60.054688 C 152.308594 60.054688 152.183594 60.039062 152.082031 60.003906 C 151.984375 59.96875 151.914062 59.941406 151.875 59.921875 L 151.875 58.875 C 151.925781 58.894531 151.988281 58.917969 152.066406 58.941406 C 152.148438 58.96875 152.253906 58.980469 152.378906 58.980469 C 152.808594 58.980469 153.132812 58.847656 153.355469 58.578125 C 153.578125 58.308594 153.769531 57.894531 153.929688 57.335938 L 154.03125 56.964844 L 151.726562 49.808594 L 153.019531 49.808594 L 154.136719 53.78125 C 154.246094 54.191406 154.347656 54.570312 154.433594 54.925781 C 154.523438 55.277344 154.578125 55.59375 154.597656 55.871094 L 154.628906 55.871094 C 154.648438 55.59375 154.695312 55.28125 154.769531 54.929688 C 154.84375 54.582031 154.933594 54.203125 155.042969 53.796875 L 156.058594 49.808594 Z M 151.296875 50.867188 C 151.265625 50.847656 151.199219 50.824219 151.097656 50.792969 C 151.003906 50.761719 150.867188 50.746094 150.699219 50.746094 C 150.320312 50.746094 150.027344 50.851562 149.8125 51.054688 C 149.601562 51.257812 149.449219 51.480469 149.363281 51.71875 L 149.363281 56.980469 L 148.15625 56.980469 L 148.15625 49.808594 L 149.257812 49.808594 L 149.257812 50.777344 L 149.285156 50.777344 C 149.335938 50.636719 149.398438 50.5 149.476562 50.367188 C 149.558594 50.230469 149.65625 50.113281 149.777344 50.007812 C 149.894531 49.902344 150.039062 49.820312 150.203125 49.761719 C 150.367188 49.703125 150.5625 49.671875 150.789062 49.671875 C 150.957031 49.671875 151.09375 49.6875 151.199219 49.71875 C 151.300781 49.746094 151.382812 49.773438 151.441406 49.789062 Z M 146.785156 50.792969 L 145.226562 50.792969 L 145.226562 54.765625 C 145.226562 55.273438 145.289062 55.621094 145.417969 55.804688 C 145.546875 55.988281 145.765625 56.082031 146.074219 56.082031 C 146.25 56.082031 146.402344 56.058594 146.535156 56.007812 C 146.664062 55.957031 146.753906 55.910156 146.816406 55.871094 L 146.980469 56.84375 C 146.929688 56.882812 146.8125 56.945312 146.621094 57.03125 C 146.433594 57.113281 146.183594 57.15625 145.863281 57.15625 C 145.25 57.15625 144.789062 56.984375 144.480469 56.644531 C 144.171875 56.296875 144.019531 55.730469 144.019531 54.929688 L 144.019531 50.792969 L 143.15625 50.792969 L 143.15625 49.984375 L 144.019531 49.808594 L 144.152344 47.804688 L 145.226562 47.804688 L 145.226562 49.808594 L 146.933594 49.808594 Z M 141.609375 51.253906 C 141.53125 51.164062 141.386719 51.042969 141.175781 50.890625 C 140.96875 50.734375 140.695312 50.660156 140.359375 50.660156 C 140.039062 50.660156 139.800781 50.734375 139.628906 50.882812 C 139.460938 51.03125 139.378906 51.210938 139.378906 51.421875 C 139.378906 51.6875 139.457031 51.910156 139.609375 52.085938 C 139.761719 52.261719 139.996094 52.445312 140.316406 52.644531 L 140.761719 52.914062 C 141.246094 53.203125 141.628906 53.515625 141.90625 53.847656 C 142.183594 54.183594 142.324219 54.613281 142.324219 55.140625 C 142.324219 55.707031 142.128906 56.1875 141.734375 56.574219 C 141.34375 56.964844 140.78125 57.15625 140.046875 57.15625 C 139.761719 57.15625 139.507812 57.128906 139.289062 57.066406 C 139.066406 57.007812 138.878906 56.9375 138.714844 56.859375 C 138.550781 56.777344 138.414062 56.691406 138.304688 56.597656 C 138.195312 56.503906 138.105469 56.414062 138.039062 56.335938 L 138.621094 55.378906 C 138.679688 55.441406 138.75 55.507812 138.832031 55.589844 C 138.917969 55.667969 139.019531 55.746094 139.140625 55.820312 C 139.257812 55.894531 139.390625 55.957031 139.539062 56.007812 C 139.6875 56.058594 139.863281 56.082031 140.0625 56.082031 C 140.417969 56.082031 140.691406 56.003906 140.878906 55.84375 C 141.066406 55.683594 141.160156 55.488281 141.160156 55.261719 C 141.160156 55.089844 141.140625 54.945312 141.097656 54.820312 C 141.050781 54.695312 140.984375 54.582031 140.894531 54.484375 C 140.804688 54.382812 140.695312 54.289062 140.570312 54.199219 C 140.4375 54.109375 140.289062 54.011719 140.121094 53.902344 L 139.671875 53.617188 C 139.226562 53.328125 138.878906 53.023438 138.628906 52.703125 C 138.375 52.386719 138.246094 51.976562 138.246094 51.480469 C 138.246094 51.210938 138.296875 50.964844 138.402344 50.738281 C 138.507812 50.515625 138.652344 50.320312 138.839844 50.15625 C 139.03125 49.992188 139.25 49.863281 139.503906 49.769531 C 139.757812 49.675781 140.027344 49.628906 140.316406 49.628906 C 140.59375 49.628906 140.828125 49.65625 141.027344 49.710938 C 141.226562 49.765625 141.398438 49.832031 141.542969 49.917969 C 141.6875 50.003906 141.804688 50.089844 141.898438 50.171875 C 141.996094 50.257812 142.070312 50.328125 142.128906 50.390625 Z M 136.089844 48.074219 C 135.839844 48.074219 135.644531 47.992188 135.492188 47.835938 C 135.34375 47.675781 135.269531 47.464844 135.269531 47.207031 C 135.269531 46.957031 135.34375 46.753906 135.492188 46.59375 C 135.644531 46.433594 135.839844 46.355469 136.089844 46.355469 C 136.324219 46.355469 136.519531 46.433594 136.667969 46.59375 C 136.816406 46.753906 136.890625 46.957031 136.890625 47.207031 C 136.890625 47.464844 136.816406 47.675781 136.667969 47.835938 C 136.519531 47.992188 136.324219 48.074219 136.089844 48.074219 Z M 136.683594 56.980469 L 135.480469 56.980469 L 135.480469 49.808594 L 136.683594 49.808594 Z M 132.472656 56.980469 L 132.472656 52.359375 C 132.472656 51.753906 132.371094 51.316406 132.167969 51.054688 C 131.964844 50.789062 131.652344 50.660156 131.234375 50.660156 C 130.878906 50.660156 130.582031 50.746094 130.34375 50.925781 C 130.105469 51.105469 129.917969 51.28125 129.777344 51.449219 L 129.777344 56.980469 L 128.574219 56.980469 L 128.574219 49.808594 L 129.675781 49.808594 L 129.675781 50.613281 L 129.707031 50.613281 C 129.734375 50.554688 129.800781 50.464844 129.898438 50.351562 C 130 50.238281 130.125 50.128906 130.285156 50.023438 C 130.445312 49.917969 130.632812 49.828125 130.851562 49.746094 C 131.066406 49.667969 131.316406 49.628906 131.59375 49.628906 C 131.914062 49.628906 132.199219 49.675781 132.457031 49.769531 C 132.714844 49.863281 132.933594 50.015625 133.109375 50.222656 C 133.289062 50.433594 133.429688 50.707031 133.53125 51.039062 C 133.625 51.371094 133.679688 51.785156 133.679688 52.273438 L 133.679688 56.980469 Z M 126.136719 48.074219 C 125.886719 48.074219 125.6875 47.992188 125.539062 47.835938 C 125.390625 47.675781 125.316406 47.464844 125.316406 47.207031 C 125.316406 46.957031 125.390625 46.753906 125.539062 46.59375 C 125.6875 46.433594 125.886719 46.355469 126.136719 46.355469 C 126.371094 46.355469 126.5625 46.433594 126.710938 46.59375 C 126.863281 46.753906 126.9375 46.957031 126.9375 47.207031 C 126.9375 47.464844 126.863281 47.675781 126.710938 47.835938 C 126.5625 47.992188 126.371094 48.074219 126.136719 48.074219 Z M 126.730469 56.980469 L 125.523438 56.980469 L 125.523438 49.808594 L 126.730469 49.808594 Z M 123.425781 46.667969 L 123.425781 56.980469 L 122.175781 56.980469 L 122.175781 52.078125 C 122.175781 51.769531 122.175781 51.464844 122.175781 51.164062 C 122.175781 50.867188 122.179688 50.589844 122.183594 50.328125 C 122.1875 50.070312 122.195312 49.839844 122.207031 49.640625 C 122.214844 49.441406 122.226562 49.289062 122.234375 49.179688 L 122.191406 49.179688 C 122.140625 49.410156 122.039062 49.777344 121.886719 50.292969 C 121.730469 50.804688 121.554688 51.355469 121.359375 51.941406 L 119.660156 56.980469 L 118.636719 56.980469 L 116.9375 51.941406 C 116.742188 51.355469 116.566406 50.804688 116.410156 50.292969 C 116.257812 49.777344 116.15625 49.410156 116.105469 49.179688 L 116.0625 49.179688 C 116.070312 49.296875 116.082031 49.457031 116.089844 49.65625 C 116.101562 49.855469 116.109375 50.082031 116.113281 50.335938 C 116.117188 50.589844 116.121094 50.867188 116.121094 51.164062 C 116.121094 51.464844 116.121094 51.769531 116.121094 52.078125 L 116.121094 56.980469 L 114.867188 56.980469 L 114.867188 46.667969 L 116.3125 46.667969 L 118.738281 53.78125 C 118.847656 54.109375 118.945312 54.429688 119.027344 54.746094 C 119.113281 55.058594 119.164062 55.328125 119.183594 55.558594 L 119.214844 55.558594 C 119.226562 55.328125 119.273438 55.0625 119.355469 54.753906 C 119.441406 54.445312 119.535156 54.125 119.644531 53.796875 L 122.070312 46.667969 Z M 109.261719 55.304688 C 109.261719 55.605469 109.304688 55.8125 109.386719 55.933594 C 109.472656 56.050781 109.617188 56.113281 109.824219 56.113281 C 109.9375 56.113281 110.027344 56.101562 110.101562 56.082031 C 110.175781 56.0625 110.230469 56.042969 110.273438 56.023438 L 110.375 56.917969 C 110.316406 56.949219 110.207031 56.988281 110.046875 57.039062 C 109.890625 57.089844 109.675781 57.113281 109.410156 57.113281 C 109.003906 57.113281 108.675781 56.988281 108.425781 56.738281 C 108.179688 56.492188 108.054688 56.046875 108.054688 55.410156 L 108.054688 46.414062 L 109.261719 46.28125 Z M 103.875 56.128906 C 104.042969 56.128906 104.191406 56.101562 104.320312 56.050781 C 104.449219 56.003906 104.5625 55.941406 104.65625 55.871094 C 104.75 55.804688 104.828125 55.726562 104.894531 55.640625 C 104.960938 55.558594 105.015625 55.484375 105.066406 55.425781 L 105.066406 53.839844 L 104.679688 53.855469 C 104.101562 53.875 103.667969 53.976562 103.371094 54.15625 C 103.070312 54.335938 102.921875 54.621094 102.921875 55.019531 C 102.921875 55.390625 103.003906 55.664062 103.175781 55.851562 C 103.34375 56.035156 103.578125 56.128906 103.875 56.128906 Z M 101.71875 55.15625 C 101.71875 54.738281 101.796875 54.390625 101.957031 54.109375 C 102.113281 53.832031 102.328125 53.601562 102.59375 53.429688 C 102.863281 53.253906 103.175781 53.128906 103.539062 53.054688 C 103.898438 52.980469 104.285156 52.945312 104.691406 52.945312 L 105.066406 52.945312 L 105.066406 52.257812 C 105.066406 51.648438 104.960938 51.230469 104.746094 51.003906 C 104.53125 50.773438 104.230469 50.660156 103.84375 50.660156 C 103.488281 50.660156 103.191406 50.734375 102.953125 50.890625 C 102.714844 51.042969 102.523438 51.179688 102.386719 51.300781 L 101.878906 50.492188 C 101.960938 50.414062 102.0625 50.324219 102.183594 50.222656 C 102.308594 50.125 102.460938 50.03125 102.640625 49.941406 C 102.820312 49.851562 103.019531 49.777344 103.25 49.71875 C 103.476562 49.65625 103.734375 49.628906 104.023438 49.628906 C 104.757812 49.628906 105.3125 49.832031 105.6875 50.238281 C 106.066406 50.648438 106.253906 51.304688 106.253906 52.210938 L 106.253906 55.484375 C 106.253906 55.792969 106.265625 56.09375 106.285156 56.386719 C 106.304688 56.683594 106.324219 56.878906 106.34375 56.980469 L 105.199219 56.980469 L 105.152344 56.1875 L 105.125 56.1875 C 105.085938 56.277344 105.027344 56.378906 104.945312 56.492188 C 104.863281 56.609375 104.765625 56.710938 104.648438 56.804688 C 104.527344 56.902344 104.386719 56.984375 104.214844 57.054688 C 104.046875 57.125 103.847656 57.15625 103.621094 57.15625 C 103.355469 57.15625 103.105469 57.109375 102.871094 57.007812 C 102.636719 56.910156 102.433594 56.769531 102.261719 56.589844 C 102.085938 56.410156 101.953125 56.199219 101.859375 55.953125 C 101.765625 55.710938 101.71875 55.445312 101.71875 55.15625 Z M 101.015625 50.867188 C 100.988281 50.847656 100.921875 50.824219 100.824219 50.792969 C 100.726562 50.761719 100.59375 50.746094 100.421875 50.746094 C 100.046875 50.746094 99.75 50.851562 99.535156 51.054688 C 99.324219 51.257812 99.171875 51.480469 99.082031 51.71875 L 99.082031 56.980469 L 97.878906 56.980469 L 97.878906 49.808594 L 98.980469 49.808594 L 98.980469 50.777344 L 99.007812 50.777344 C 99.058594 50.636719 99.121094 50.5 99.203125 50.367188 C 99.28125 50.230469 99.378906 50.113281 99.5 50.007812 C 99.617188 49.902344 99.761719 49.820312 99.921875 49.761719 C 100.089844 49.703125 100.285156 49.671875 100.511719 49.671875 C 100.679688 49.671875 100.816406 49.6875 100.921875 49.71875 C 101.027344 49.746094 101.105469 49.773438 101.164062 49.789062 Z M 94.007812 50.613281 C 93.582031 50.613281 93.242188 50.792969 92.980469 51.152344 C 92.726562 51.511719 92.574219 52.027344 92.535156 52.703125 L 95.140625 52.703125 C 95.148438 52.65625 95.15625 52.582031 95.164062 52.488281 C 95.167969 52.394531 95.171875 52.292969 95.171875 52.183594 C 95.171875 51.683594 95.070312 51.296875 94.871094 51.023438 C 94.671875 50.75 94.386719 50.613281 94.007812 50.613281 Z M 96.269531 52.226562 C 96.269531 52.535156 96.261719 52.800781 96.242188 53.027344 C 96.222656 53.25 96.203125 53.445312 96.179688 53.617188 L 92.535156 53.617188 C 92.574219 54.464844 92.757812 55.085938 93.082031 55.484375 C 93.402344 55.882812 93.863281 56.082031 94.46875 56.082031 C 94.679688 56.082031 94.867188 56.058594 95.035156 56.007812 C 95.203125 55.957031 95.351562 55.898438 95.472656 55.828125 C 95.597656 55.757812 95.703125 55.6875 95.785156 55.617188 C 95.871094 55.550781 95.933594 55.492188 95.972656 55.453125 L 96.417969 56.304688 C 96.367188 56.355469 96.296875 56.429688 96.195312 56.523438 C 96.097656 56.617188 95.964844 56.710938 95.792969 56.804688 C 95.625 56.902344 95.417969 56.984375 95.171875 57.054688 C 94.921875 57.125 94.628906 57.15625 94.292969 57.15625 C 93.84375 57.15625 93.441406 57.082031 93.082031 56.933594 C 92.71875 56.785156 92.410156 56.550781 92.15625 56.238281 C 91.902344 55.925781 91.707031 55.527344 91.570312 55.042969 C 91.429688 54.5625 91.359375 53.980469 91.359375 53.304688 C 91.359375 52.664062 91.433594 52.113281 91.578125 51.652344 C 91.71875 51.1875 91.917969 50.808594 92.164062 50.507812 C 92.410156 50.210938 92.699219 49.988281 93.027344 49.84375 C 93.355469 49.699219 93.707031 49.628906 94.082031 49.628906 C 94.769531 49.628906 95.304688 49.84375 95.691406 50.277344 C 96.078125 50.710938 96.269531 51.359375 96.269531 52.226562 Z M 87.296875 56.082031 C 87.488281 56.082031 87.65625 56.058594 87.804688 56.007812 C 87.953125 55.957031 88.082031 55.894531 88.191406 55.820312 C 88.300781 55.746094 88.390625 55.667969 88.46875 55.589844 C 88.539062 55.507812 88.597656 55.441406 88.636719 55.378906 L 88.636719 50.957031 C 88.527344 50.886719 88.402344 50.828125 88.257812 50.777344 C 88.113281 50.726562 87.933594 50.703125 87.714844 50.703125 C 87.4375 50.703125 87.175781 50.75 86.933594 50.84375 C 86.691406 50.9375 86.480469 51.097656 86.300781 51.316406 C 86.121094 51.535156 85.980469 51.820312 85.878906 52.167969 C 85.773438 52.515625 85.71875 52.945312 85.71875 53.453125 C 85.71875 53.949219 85.761719 54.367188 85.847656 54.699219 C 85.933594 55.035156 86.046875 55.300781 86.199219 55.507812 C 86.347656 55.710938 86.515625 55.859375 86.703125 55.945312 C 86.890625 56.039062 87.089844 56.082031 87.296875 56.082031 Z M 84.472656 53.496094 C 84.472656 52.769531 84.566406 52.160156 84.753906 51.675781 C 84.941406 51.1875 85.183594 50.792969 85.484375 50.492188 C 85.78125 50.195312 86.117188 49.984375 86.496094 49.859375 C 86.871094 49.734375 87.25 49.671875 87.625 49.671875 C 87.855469 49.671875 88.050781 49.691406 88.21875 49.722656 C 88.390625 49.757812 88.527344 49.800781 88.636719 49.851562 L 88.636719 46.414062 L 89.84375 46.28125 L 89.84375 56.980469 L 88.742188 56.980469 L 88.742188 56.214844 L 88.710938 56.214844 C 88.679688 56.277344 88.628906 56.359375 88.546875 56.464844 C 88.46875 56.566406 88.359375 56.671875 88.21875 56.777344 C 88.082031 56.878906 87.90625 56.972656 87.699219 57.046875 C 87.492188 57.121094 87.25 57.15625 86.972656 57.15625 C 86.632812 57.15625 86.3125 57.089844 86.011719 56.957031 C 85.707031 56.820312 85.445312 56.609375 85.214844 56.3125 C 84.988281 56.019531 84.804688 55.640625 84.671875 55.179688 C 84.539062 54.714844 84.472656 54.15625 84.472656 53.496094 Z M 80.929688 50.613281 C 80.503906 50.613281 80.160156 50.792969 79.902344 51.152344 C 79.644531 51.511719 79.496094 52.027344 79.457031 52.703125 L 82.058594 52.703125 C 82.070312 52.65625 82.078125 52.582031 82.082031 52.488281 C 82.089844 52.394531 82.089844 52.292969 82.089844 52.183594 C 82.089844 51.683594 81.992188 51.296875 81.792969 51.023438 C 81.59375 50.75 81.308594 50.613281 80.929688 50.613281 Z M 83.191406 52.226562 C 83.191406 52.535156 83.179688 52.800781 83.164062 53.027344 C 83.144531 53.25 83.121094 53.445312 83.101562 53.617188 L 79.457031 53.617188 C 79.496094 54.464844 79.679688 55.085938 80 55.484375 C 80.324219 55.882812 80.785156 56.082031 81.390625 56.082031 C 81.601562 56.082031 81.789062 56.058594 81.957031 56.007812 C 82.125 55.957031 82.273438 55.898438 82.398438 55.828125 C 82.519531 55.757812 82.625 55.6875 82.707031 55.617188 C 82.792969 55.550781 82.855469 55.492188 82.894531 55.453125 L 83.339844 56.304688 C 83.292969 56.355469 83.21875 56.429688 83.117188 56.523438 C 83.019531 56.617188 82.882812 56.710938 82.714844 56.804688 C 82.546875 56.902344 82.339844 56.984375 82.089844 57.054688 C 81.84375 57.125 81.550781 57.15625 81.214844 57.15625 C 80.765625 57.15625 80.363281 57.082031 80 56.933594 C 79.636719 56.785156 79.332031 56.550781 79.078125 56.238281 C 78.824219 55.925781 78.628906 55.527344 78.488281 55.042969 C 78.351562 54.5625 78.28125 53.980469 78.28125 53.304688 C 78.28125 52.664062 78.351562 52.113281 78.496094 51.652344 C 78.640625 51.1875 78.835938 50.808594 79.085938 50.507812 C 79.332031 50.210938 79.621094 49.988281 79.949219 49.84375 C 80.277344 49.699219 80.628906 49.628906 81.003906 49.628906 C 81.6875 49.628906 82.222656 49.84375 82.613281 50.277344 C 82.996094 50.710938 83.191406 51.359375 83.191406 52.226562 Z M 72.328125 56.980469 L 72.328125 46.667969 L 77.375 46.667969 L 77.285156 47.699219 L 73.625 47.699219 L 73.625 51.511719 L 77.003906 51.511719 L 77.003906 52.539062 L 73.625 52.539062 L 73.625 56.980469 L 72.328125 56.980469 "/>
<path style=" stroke:none;fill-rule:nonzero;fill:rgb(13.729858%,12.159729%,12.548828%);fill-opacity:1;" d="M 39.484375 56.148438 C 39.519531 55.867188 39.539062 55.578125 39.539062 55.28125 C 39.539062 55.117188 39.539062 54.929688 39.519531 54.71875 C 42.011719 54.683594 44.199219 52.878906 44.199219 50.804688 C 44.199219 49.75 43.515625 48.953125 43.125 48.480469 C 43.214844 48.460938 43.300781 48.441406 43.390625 48.417969 C 43.753906 48.738281 44.789062 49.871094 44.789062 51.300781 C 44.789062 53.789062 42.3125 56.097656 39.484375 56.148438 Z M 36.976562 47.484375 C 36.929688 47.207031 36.824219 46.957031 36.664062 46.742188 C 36.671875 46.488281 36.777344 46.246094 37.183594 46.445312 C 36.960938 46.671875 37.132812 47.070312 37.132812 47.070312 C 37.132812 47.070312 37.582031 46.863281 37.488281 46.5625 C 38.15625 46.722656 37.675781 47.625 36.976562 47.484375 Z M 36.394531 48.761719 C 36.304688 48.390625 36.117188 48.007812 35.875 47.722656 C 35.65625 47.460938 35.292969 47.152344 34.800781 47.152344 C 34.578125 47.152344 34.203125 47.257812 33.964844 47.359375 C 33.875 47.195312 33.699219 46.800781 33.699219 46.625 C 33.699219 46.441406 34.007812 46.257812 34.59375 46.257812 C 35.882812 46.257812 36.65625 46.84375 36.65625 47.824219 C 36.65625 48.171875 36.519531 48.484375 36.394531 48.761719 Z M 39.710938 65.460938 C 39.859375 65.460938 39.933594 65.488281 40.019531 65.519531 C 40.390625 66.535156 41.824219 68.449219 41.882812 68.53125 L 41.894531 68.546875 L 41.917969 68.542969 C 42.269531 68.484375 43.164062 68.347656 43.914062 68.347656 L 43.929688 68.347656 C 44.015625 68.347656 44.105469 68.347656 44.164062 68.40625 C 44.214844 68.457031 44.238281 68.542969 44.238281 68.664062 C 44.238281 68.851562 44.15625 69.171875 44.0625 69.308594 C 43.800781 69.019531 43.375 68.890625 42.691406 68.890625 C 42.484375 68.890625 42.242188 68.953125 42.113281 68.988281 L 42.058594 69 L 41.996094 69.015625 L 42.390625 69.410156 C 43 70.019531 43.527344 70.546875 43.527344 70.898438 C 43.527344 71.109375 43.320312 71.382812 43.132812 71.503906 C 43.089844 70.863281 42.445312 70.003906 41.816406 69.523438 L 41.761719 69.484375 L 41.753906 69.710938 C 41.742188 69.863281 41.730469 70.09375 41.730469 70.339844 C 41.730469 71.558594 41.605469 71.746094 41.183594 71.746094 C 41.121094 71.746094 41.019531 71.726562 40.960938 71.703125 C 41.199219 71.410156 41.292969 71.019531 41.292969 70.335938 L 41.289062 70.023438 L 41.285156 69.769531 C 41.285156 69.488281 41.3125 69.28125 41.335938 69.113281 L 41.347656 69.019531 L 41.28125 69.011719 C 41.085938 68.984375 40.71875 68.933594 40.4375 68.933594 C 39.835938 68.933594 39.429688 68.988281 39.132812 69.269531 C 38.9375 69.109375 38.738281 68.835938 38.738281 68.664062 C 38.738281 68.410156 38.894531 68.390625 39.101562 68.390625 C 39.207031 68.390625 39.304688 68.402344 39.441406 68.421875 C 39.699219 68.460938 40.089844 68.519531 40.890625 68.519531 L 40.941406 68.519531 L 40.925781 68.46875 C 40.722656 67.886719 40.164062 67.035156 39.269531 65.945312 C 39.347656 65.652344 39.429688 65.460938 39.710938 65.460938 Z M 31.988281 68.46875 L 31.972656 68.519531 L 32.023438 68.519531 C 32.824219 68.519531 33.214844 68.460938 33.472656 68.421875 C 33.609375 68.402344 33.707031 68.390625 33.808594 68.390625 C 34.015625 68.390625 34.175781 68.410156 34.175781 68.664062 C 34.175781 68.835938 33.976562 69.109375 33.78125 69.269531 C 33.484375 68.988281 33.078125 68.933594 32.476562 68.933594 C 32.195312 68.933594 31.828125 68.984375 31.632812 69.011719 L 31.601562 69.015625 L 31.566406 69.019531 L 31.578125 69.113281 C 31.601562 69.28125 31.628906 69.488281 31.628906 69.769531 L 31.625 70.023438 L 31.621094 70.335938 C 31.621094 71.019531 31.714844 71.410156 31.953125 71.703125 C 31.894531 71.726562 31.792969 71.746094 31.726562 71.746094 C 31.308594 71.746094 31.183594 71.558594 31.183594 70.339844 C 31.183594 70.09375 31.171875 69.863281 31.160156 69.710938 L 31.152344 69.480469 L 31.097656 69.523438 C 30.46875 70.003906 29.824219 70.863281 29.785156 71.503906 C 29.59375 71.382812 29.390625 71.109375 29.390625 70.898438 C 29.390625 70.546875 29.914062 70.019531 30.523438 69.410156 L 30.871094 69.058594 L 30.914062 69.015625 L 30.800781 68.988281 C 30.667969 68.953125 30.425781 68.890625 30.222656 68.890625 C 29.539062 68.890625 29.113281 69.019531 28.847656 69.308594 C 28.753906 69.171875 28.675781 68.851562 28.675781 68.664062 C 28.675781 68.542969 28.699219 68.457031 28.746094 68.40625 C 28.808594 68.347656 28.898438 68.347656 28.980469 68.347656 L 28.996094 68.347656 C 29.75 68.347656 30.648438 68.484375 30.996094 68.542969 L 31.019531 68.546875 L 31.03125 68.53125 C 31.09375 68.449219 32.523438 66.535156 32.894531 65.519531 C 32.980469 65.488281 33.054688 65.460938 33.203125 65.460938 C 33.484375 65.460938 33.5625 65.652344 33.644531 65.945312 C 32.75 67.035156 32.191406 67.886719 31.988281 68.46875 Z M 28.121094 51.300781 C 28.121094 49.871094 29.160156 48.738281 29.523438 48.417969 C 29.613281 48.441406 29.699219 48.460938 29.785156 48.480469 C 29.398438 48.953125 28.714844 49.75 28.714844 50.804688 C 28.714844 52.898438 30.945312 54.71875 33.464844 54.71875 C 33.449219 54.898438 33.441406 55.085938 33.441406 55.28125 C 33.441406 55.589844 33.457031 55.878906 33.488281 56.148438 C 30.636719 56.132812 28.121094 53.804688 28.121094 51.300781 Z M 47.261719 55.710938 C 48.542969 57.746094 49.542969 57.710938 51.058594 57.710938 C 49.804688 56.746094 48.976562 55.511719 48.582031 54.882812 L 46.246094 51.125 C 46.015625 49.964844 45.417969 48.878906 44.523438 48.074219 C 44.824219 47.960938 45.074219 47.839844 45.226562 47.722656 C 43.699219 47.722656 42.183594 46.945312 41.351562 46.945312 C 40.816406 46.945312 40.472656 47.269531 40.472656 47.691406 C 40.507812 48.164062 40.992188 48.644531 41.890625 48.644531 C 42.09375 48.644531 42.351562 48.621094 42.636719 48.574219 C 43.121094 49.253906 43.515625 49.867188 43.515625 50.742188 C 43.515625 52.386719 41.554688 53.667969 39.578125 53.667969 C 39.464844 53.667969 39.359375 53.664062 39.246094 53.65625 C 39.070312 53.246094 38.472656 52.5625 38.472656 51.785156 C 38.472656 50.476562 39.324219 49.410156 39.324219 48.117188 C 39.324219 47.3125 38.929688 46.8125 38.78125 46.605469 C 39.023438 46.378906 39.289062 46.101562 39.351562 45.910156 C 39.210938 45.972656 39.042969 45.980469 38.796875 45.980469 C 37.851562 45.980469 37.078125 45.734375 36.324219 45.734375 C 35.898438 45.734375 35.78125 45.867188 35.78125 45.992188 C 35.78125 46.039062 35.789062 46.085938 35.800781 46.109375 C 35.640625 46.046875 35.488281 46.007812 35.308594 45.972656 C 35.089844 45.929688 34.847656 45.910156 34.59375 45.910156 C 33.679688 45.910156 33.355469 46.292969 33.355469 46.625 C 33.355469 46.902344 33.574219 47.414062 33.820312 47.800781 C 34.179688 47.621094 34.605469 47.5 34.800781 47.5 C 35.289062 47.5 35.71875 47.964844 35.949219 48.515625 C 35.621094 48.554688 35.558594 48.570312 35.230469 48.570312 C 34.339844 48.570312 33.730469 48.246094 33.605469 48.246094 C 33.59375 48.246094 33.570312 48.253906 33.570312 48.273438 C 33.570312 48.398438 33.824219 48.730469 34.320312 48.914062 C 34.976562 49.15625 35.960938 49.253906 36.125 49.28125 C 36.125 49.3125 35.957031 49.621094 35.773438 49.683594 C 35.734375 49.695312 35.703125 49.695312 35.65625 49.6875 C 34.972656 49.550781 34.78125 49.492188 33.910156 49.160156 C 33.882812 49.152344 33.867188 49.167969 33.867188 49.195312 C 33.867188 49.542969 34.757812 50.304688 35.554688 50.59375 C 34.890625 51.449219 34.058594 52.324219 33.664062 53.65625 C 33.554688 53.664062 33.449219 53.667969 33.335938 53.667969 C 31.359375 53.667969 29.398438 52.386719 29.398438 50.742188 C 29.398438 49.867188 29.792969 49.253906 30.277344 48.574219 C 30.5625 48.621094 30.820312 48.644531 31.023438 48.644531 C 31.921875 48.644531 32.40625 48.164062 32.441406 47.691406 C 32.441406 47.269531 32.097656 46.945312 31.558594 46.945312 C 30.726562 46.945312 29.214844 47.722656 27.6875 47.722656 C 27.839844 47.839844 28.089844 47.960938 28.390625 48.074219 C 27.496094 48.878906 26.898438 49.964844 26.667969 51.125 L 24.332031 54.882812 C 23.9375 55.511719 23.105469 56.746094 21.855469 57.710938 C 23.367188 57.710938 24.371094 57.746094 25.652344 55.710938 L 26.851562 53.785156 C 26.9375 54.035156 27.046875 54.277344 27.175781 54.519531 L 24.792969 58.347656 C 24.394531 58.984375 23.574219 60.207031 22.316406 61.175781 C 23.828125 61.175781 24.832031 61.210938 26.113281 59.179688 L 28.164062 55.878906 C 28.316406 56.042969 28.480469 56.203125 28.652344 56.359375 L 25.753906 61.015625 C 25.355469 61.648438 24.539062 62.871094 23.28125 63.839844 C 24.792969 63.839844 25.792969 63.875 27.074219 61.84375 L 29.898438 57.304688 C 30.085938 57.421875 30.273438 57.535156 30.472656 57.644531 L 27.023438 63.179688 C 26.628906 63.820312 25.808594 65.035156 24.550781 66.007812 C 26.0625 66.007812 27.066406 66.042969 28.34375 64.011719 L 31.894531 58.304688 C 32.105469 58.386719 32.316406 58.464844 32.535156 58.535156 L 28.523438 64.980469 C 28.132812 65.605469 27.296875 66.84375 26.050781 67.804688 C 27.5625 67.804688 28.566406 67.835938 29.84375 65.808594 L 34.117188 58.9375 C 34.164062 58.945312 34.207031 58.953125 34.246094 58.960938 C 34.363281 59.335938 34.445312 59.679688 34.445312 60.023438 C 34.445312 62.183594 33.035156 64.089844 31.34375 65.5625 C 31.453125 65.609375 31.640625 65.625 31.8125 65.625 C 32.164062 65.625 32.390625 65.605469 32.546875 65.578125 C 32.15625 66.472656 31.3125 67.628906 30.886719 68.226562 C 30.332031 68.128906 29.527344 68.050781 28.996094 68.050781 C 28.445312 68.050781 28.382812 68.375 28.382812 68.664062 C 28.382812 69.167969 28.617188 69.566406 28.890625 69.792969 C 28.992188 69.535156 29.199219 69.1875 30.222656 69.1875 C 30.238281 69.1875 30.277344 69.191406 30.324219 69.195312 C 30.027344 69.527344 29.089844 70.285156 29.089844 70.898438 C 29.089844 71.300781 29.53125 71.90625 30.113281 71.90625 C 30.082031 71.777344 30.085938 71.65625 30.085938 71.566406 C 30.085938 71.074219 30.519531 70.492188 30.890625 70.089844 C 30.878906 70.210938 30.882812 70.199219 30.882812 70.339844 C 30.882812 71.507812 30.988281 72.042969 31.726562 72.042969 C 32.089844 72.042969 32.339844 71.84375 32.425781 71.785156 C 31.949219 71.339844 31.921875 70.992188 31.921875 70.335938 C 31.925781 70.167969 31.925781 70 31.925781 69.769531 C 31.929688 69.621094 31.925781 69.421875 31.902344 69.277344 C 32.167969 69.242188 32.273438 69.242188 32.476562 69.242188 C 32.476562 69.242188 33.527344 69.15625 33.78125 69.707031 C 34.066406 69.441406 34.476562 69.074219 34.476562 68.664062 C 34.476562 68.394531 34.351562 68.089844 33.808594 68.089844 C 33.605469 68.089844 32.960938 68.214844 32.421875 68.214844 C 32.566406 67.894531 33.210938 66.945312 33.769531 66.257812 C 33.855469 66.523438 33.988281 66.8125 34.28125 67.046875 C 34.320312 66.605469 34.578125 65.210938 35.265625 64.394531 C 35.34375 64.945312 35.453125 65.511719 35.453125 66.707031 C 35.453125 69.609375 34.757812 71.753906 33.28125 72.164062 C 33.472656 72.5 33.878906 72.800781 34.300781 72.800781 C 34.84375 72.800781 35.136719 72.191406 35.4375 71.609375 C 35.59375 72.039062 36.023438 73.085938 36.457031 73.085938 C 36.890625 73.085938 37.320312 72.039062 37.476562 71.609375 C 37.777344 72.191406 38.070312 72.800781 38.613281 72.800781 C 39.03125 72.800781 39.441406 72.5 39.632812 72.164062 C 38.15625 71.753906 37.460938 69.609375 37.460938 66.707031 C 37.460938 65.511719 37.566406 64.945312 37.648438 64.394531 C 38.335938 65.210938 38.59375 66.605469 38.632812 67.046875 C 38.925781 66.8125 39.058594 66.523438 39.144531 66.257812 C 39.699219 66.945312 40.347656 67.894531 40.492188 68.214844 C 39.953125 68.214844 39.308594 68.089844 39.101562 68.089844 C 38.5625 68.089844 38.433594 68.394531 38.433594 68.664062 C 38.433594 69.074219 38.847656 69.441406 39.132812 69.707031 C 39.386719 69.15625 40.4375 69.242188 40.4375 69.242188 C 40.640625 69.242188 40.746094 69.242188 41.011719 69.277344 C 40.988281 69.421875 40.984375 69.621094 40.988281 69.769531 C 40.988281 70 40.988281 70.167969 40.992188 70.335938 C 40.992188 70.992188 40.96875 71.339844 40.488281 71.785156 C 40.574219 71.84375 40.824219 72.042969 41.183594 72.042969 C 41.925781 72.042969 42.03125 71.507812 42.03125 70.339844 C 42.03125 70.199219 42.035156 70.210938 42.023438 70.089844 C 42.394531 70.492188 42.828125 71.074219 42.828125 71.566406 C 42.828125 71.65625 42.835938 71.777344 42.796875 71.90625 C 43.382812 71.90625 43.824219 71.300781 43.824219 70.898438 C 43.824219 70.285156 42.890625 69.527344 42.589844 69.195312 C 42.640625 69.191406 42.671875 69.1875 42.691406 69.1875 C 43.714844 69.1875 43.917969 69.535156 44.023438 69.792969 C 44.292969 69.566406 44.53125 69.167969 44.53125 68.664062 C 44.53125 68.375 44.46875 68.050781 43.914062 68.050781 C 43.386719 68.050781 42.582031 68.128906 42.027344 68.226562 C 41.601562 67.628906 40.757812 66.472656 40.367188 65.578125 C 40.523438 65.605469 40.75 65.625 41.097656 65.625 C 41.273438 65.625 41.464844 65.609375 41.570312 65.5625 C 39.878906 64.089844 38.46875 62.183594 38.46875 60.023438 C 38.46875 59.679688 38.550781 59.335938 38.664062 58.960938 C 38.707031 58.953125 38.75 58.945312 38.792969 58.9375 L 43.066406 65.808594 C 44.347656 67.835938 45.351562 67.804688 46.863281 67.804688 C 45.617188 66.84375 44.78125 65.605469 44.390625 64.980469 L 40.378906 58.535156 C 40.597656 58.464844 40.808594 58.386719 41.019531 58.304688 L 44.566406 64.011719 C 45.847656 66.042969 46.851562 66.007812 48.363281 66.007812 C 47.105469 65.035156 46.285156 63.820312 45.890625 63.179688 L 42.441406 57.644531 C 42.640625 57.535156 42.832031 57.421875 43.015625 57.304688 L 45.839844 61.84375 C 47.121094 63.875 48.121094 63.839844 49.632812 63.839844 C 48.375 62.871094 47.558594 61.648438 47.160156 61.015625 L 44.265625 56.359375 C 44.433594 56.203125 44.59375 56.042969 44.746094 55.878906 L 46.800781 59.179688 C 48.082031 61.210938 49.082031 61.175781 50.597656 61.175781 C 49.339844 60.207031 48.519531 58.984375 48.121094 58.347656 L 45.738281 54.519531 C 45.863281 54.277344 45.972656 54.035156 46.0625 53.785156 L 47.261719 55.710938 "/>
<path style=" stroke:none;fill-rule:nonzero;fill:rgb(94.758606%,81.028748%,1.609802%);fill-opacity:1;" d="M 61.152344 97.152344 L 63.027344 97.152344 L 63.027344 122.265625 L 58.648438 122.265625 L 58.648438 97.152344 L 61.152344 97.152344 "/>
<path style=" stroke:none;fill-rule:nonzero;fill:rgb(92.939758%,10.978699%,14.118958%);fill-opacity:1;" d="M 61.152344 71.917969 L 63.027344 71.917969 L 63.027344 97.152344 L 58.648438 97.152344 L 58.648438 71.917969 L 61.152344 71.917969 "/>
<path style=" stroke:none;fill-rule:nonzero;fill:rgb(13.729858%,12.159729%,12.548828%);fill-opacity:1;" d="M 63.027344 46.933594 L 63.027344 72.042969 L 58.648438 72.042969 L 58.648438 46.933594 L 63.027344 46.933594 "/>
<path style=" stroke:none;fill-rule:nonzero;fill:rgb(13.729858%,12.159729%,12.548828%);fill-opacity:1;" d="M 72.8125 19.667969 L 72.8125 19.851562 C 72.8125 20.699219 73.347656 20.96875 73.855469 20.96875 C 74.488281 20.96875 74.972656 20.699219 74.972656 19.953125 C 74.972656 18.566406 72.171875 18.722656 72.171875 16.839844 C 72.171875 15.726562 72.957031 15.136719 74.003906 15.136719 C 75.144531 15.136719 75.785156 15.695312 75.730469 16.96875 L 74.902344 16.96875 C 74.910156 16.285156 74.695312 15.832031 73.945312 15.832031 C 73.46875 15.832031 72.984375 16.074219 72.984375 16.753906 C 72.984375 18.132812 75.785156 17.933594 75.785156 19.917969 C 75.785156 21.238281 74.875 21.664062 73.847656 21.664062 C 72.007812 21.683594 72.007812 20.265625 72.023438 19.667969 L 72.8125 19.667969 "/>
<path style=" stroke:none;fill-rule:nonzero;fill:rgb(13.729858%,12.159729%,12.548828%);fill-opacity:1;" d="M 77.902344 18.078125 L 78.773438 18.078125 C 79.101562 18.078125 79.878906 17.992188 79.878906 17.011719 C 79.878906 16.058594 79.171875 15.960938 78.996094 15.960938 L 77.902344 15.960938 Z M 77.105469 21.53125 L 77.105469 15.269531 L 78.957031 15.269531 C 79.792969 15.269531 80.691406 15.578125 80.691406 17.054688 C 80.691406 18.480469 79.585938 18.773438 78.949219 18.773438 L 77.902344 18.773438 L 77.902344 21.53125 L 77.105469 21.53125 "/>
<path style=" stroke:none;fill-rule:nonzero;fill:rgb(13.729858%,12.159729%,12.548828%);fill-opacity:1;" d="M 84.894531 19.277344 L 84.894531 17.160156 C 84.894531 15.847656 83.992188 15.804688 83.742188 15.804688 C 83.492188 15.804688 82.59375 15.847656 82.59375 17.160156 L 82.59375 19.277344 C 82.59375 20.648438 82.992188 20.996094 83.742188 20.996094 C 84.496094 20.996094 84.894531 20.648438 84.894531 19.277344 Z M 81.78125 19.242188 L 81.78125 17.1875 C 81.78125 15.9375 82.421875 15.136719 83.742188 15.136719 C 85.066406 15.136719 85.707031 15.9375 85.707031 17.1875 L 85.707031 19.242188 C 85.707031 20.976562 85.066406 21.664062 83.742188 21.664062 C 82.421875 21.664062 81.78125 20.976562 81.78125 19.242188 "/>
<path style=" stroke:none;fill-rule:nonzero;fill:rgb(13.729858%,12.159729%,12.548828%);fill-opacity:1;" d="M 91.410156 15.269531 L 91.410156 21.53125 L 90.320312 21.53125 L 87.855469 16.101562 L 87.839844 16.101562 L 87.839844 21.53125 L 87.132812 21.53125 L 87.132812 15.269531 L 88.253906 15.269531 L 90.683594 20.632812 L 90.699219 20.632812 L 90.699219 15.269531 L 91.410156 15.269531 "/>
<path style=" stroke:none;fill-rule:nonzero;fill:rgb(13.729858%,12.159729%,12.548828%);fill-opacity:1;" d="M 93.464844 19.667969 L 93.464844 19.851562 C 93.464844 20.699219 94.003906 20.96875 94.511719 20.96875 C 95.144531 20.96875 95.625 20.699219 95.625 19.953125 C 95.625 18.566406 92.828125 18.722656 92.828125 16.839844 C 92.828125 15.726562 93.613281 15.136719 94.660156 15.136719 C 95.800781 15.136719 96.4375 15.695312 96.386719 16.96875 L 95.554688 16.96875 C 95.566406 16.285156 95.347656 15.832031 94.597656 15.832031 C 94.121094 15.832031 93.640625 16.074219 93.640625 16.753906 C 93.640625 18.132812 96.4375 17.933594 96.4375 19.917969 C 96.4375 21.238281 95.53125 21.664062 94.503906 21.664062 C 92.660156 21.683594 92.660156 20.265625 92.679688 19.667969 L 93.464844 19.667969 "/>
<path style=" stroke:none;fill-rule:nonzero;fill:rgb(13.729858%,12.159729%,12.548828%);fill-opacity:1;" d="M 100.742188 19.277344 L 100.742188 17.160156 C 100.742188 15.847656 99.84375 15.804688 99.59375 15.804688 C 99.34375 15.804688 98.445312 15.847656 98.445312 17.160156 L 98.445312 19.277344 C 98.445312 20.648438 98.839844 20.996094 99.59375 20.996094 C 100.34375 20.996094 100.742188 20.648438 100.742188 19.277344 Z M 97.632812 19.242188 L 97.632812 17.1875 C 97.632812 15.9375 98.269531 15.136719 99.59375 15.136719 C 100.914062 15.136719 101.554688 15.9375 101.554688 17.1875 L 101.554688 19.242188 C 101.554688 20.976562 100.914062 21.664062 99.59375 21.664062 C 98.269531 21.664062 97.632812 20.976562 97.632812 19.242188 "/>
<path style=" stroke:none;fill-rule:nonzero;fill:rgb(13.729858%,12.159729%,12.548828%);fill-opacity:1;" d="M 103.714844 17.957031 L 104.90625 17.957031 C 105.476562 17.957031 105.753906 17.460938 105.753906 16.917969 C 105.753906 16.464844 105.527344 15.960938 104.917969 15.960938 L 103.714844 15.960938 Z M 103.714844 18.652344 L 103.714844 21.53125 L 102.921875 21.53125 L 102.921875 15.269531 L 105.070312 15.269531 C 106.179688 15.269531 106.566406 16.050781 106.566406 16.828125 C 106.566406 17.566406 106.160156 18.132812 105.425781 18.261719 L 105.425781 18.277344 C 106.144531 18.390625 106.402344 18.636719 106.445312 19.894531 C 106.453125 20.160156 106.539062 21.144531 106.660156 21.53125 L 105.832031 21.53125 C 105.609375 21.097656 105.660156 20.285156 105.589844 19.449219 C 105.527344 18.6875 104.917969 18.652344 104.648438 18.652344 L 103.714844 18.652344 "/>
<path style=" stroke:none;fill-rule:nonzero;fill:rgb(13.729858%,12.159729%,12.548828%);fill-opacity:1;" d="M 107.742188 21.53125 L 107.742188 15.269531 L 110.957031 15.269531 L 110.957031 15.960938 L 108.539062 15.960938 L 108.539062 17.976562 L 110.785156 17.976562 L 110.785156 18.671875 L 108.539062 18.671875 L 108.539062 20.839844 L 111.007812 20.839844 L 111.007812 21.53125 L 107.742188 21.53125 "/>
<path style=" stroke:none;fill-rule:nonzero;fill:rgb(13.729858%,12.159729%,12.548828%);fill-opacity:1;" d="M 112.875 20.839844 L 113.628906 20.839844 C 114.734375 20.839844 115.140625 20.421875 115.140625 18.964844 L 115.140625 17.699219 C 115.140625 16.429688 114.753906 15.960938 113.921875 15.960938 L 112.875 15.960938 Z M 112.082031 15.269531 L 114 15.269531 C 114.796875 15.269531 115.367188 15.554688 115.675781 16.222656 C 115.929688 16.753906 115.953125 18.003906 115.953125 18.199219 C 115.953125 19.539062 115.832031 20.308594 115.574219 20.726562 C 115.234375 21.265625 114.605469 21.53125 113.515625 21.53125 L 112.082031 21.53125 L 112.082031 15.269531 "/>
<path style=" stroke:none;fill-rule:nonzero;fill:rgb(13.729858%,12.159729%,12.548828%);fill-opacity:1;" d="M 120.136719 20.839844 L 121.257812 20.839844 C 122.105469 20.839844 122.410156 20.230469 122.410156 19.773438 C 122.410156 18.773438 121.796875 18.601562 120.980469 18.601562 L 120.136719 18.601562 Z M 120.136719 17.90625 L 121.292969 17.90625 C 121.917969 17.898438 122.21875 17.515625 122.21875 16.90625 C 122.21875 16.386719 121.921875 15.960938 121.257812 15.960938 L 120.136719 15.960938 Z M 119.339844 21.53125 L 119.339844 15.269531 L 121.371094 15.269531 C 122.234375 15.269531 122.527344 15.5625 122.761719 15.910156 C 122.980469 16.25 123.015625 16.621094 123.015625 16.742188 C 123.015625 17.523438 122.746094 18.046875 121.941406 18.226562 L 121.941406 18.269531 C 122.828125 18.375 123.21875 18.914062 123.21875 19.773438 C 123.21875 21.378906 122.054688 21.53125 121.34375 21.53125 L 119.339844 21.53125 "/>
<path style=" stroke:none;fill-rule:nonzero;fill:rgb(13.729858%,12.159729%,12.548828%);fill-opacity:1;" d="M 127.28125 15.269531 L 128.085938 15.269531 L 126.382812 19.148438 L 126.382812 21.53125 L 125.589844 21.53125 L 125.589844 19.148438 L 123.910156 15.269531 L 124.804688 15.269531 L 126.019531 18.296875 L 127.28125 15.269531 "/>
<path style=" stroke:none;fill-rule:nonzero;fill:rgb(13.729858%,12.159729%,12.548828%);fill-opacity:1;" d="M 134.28125 15.269531 L 134.28125 15.960938 L 132.636719 15.960938 L 132.636719 21.53125 L 131.84375 21.53125 L 131.84375 15.960938 L 130.203125 15.960938 L 130.203125 15.269531 L 134.28125 15.269531 "/>
<path style=" stroke:none;fill-rule:nonzero;fill:rgb(13.729858%,12.159729%,12.548828%);fill-opacity:1;" d="M 135.152344 21.53125 L 135.152344 15.269531 L 135.949219 15.269531 L 135.949219 17.976562 L 138.140625 17.976562 L 138.140625 15.269531 L 138.933594 15.269531 L 138.933594 21.53125 L 138.140625 21.53125 L 138.140625 18.671875 L 135.949219 18.671875 L 135.949219 21.53125 L 135.152344 21.53125 "/>
<path style=" stroke:none;fill-rule:nonzero;fill:rgb(13.729858%,12.159729%,12.548828%);fill-opacity:1;" d="M 140.382812 21.53125 L 140.382812 15.269531 L 143.597656 15.269531 L 143.597656 15.960938 L 141.179688 15.960938 L 141.179688 17.976562 L 143.425781 17.976562 L 143.425781 18.671875 L 141.179688 18.671875 L 141.179688 20.839844 L 143.652344 20.839844 L 143.652344 21.53125 L 140.382812 21.53125 "/>
</g>
</svg>
